<svg xmlns="http://www.w3.org/2000/svg" xmlns:xlink="http://www.w3.org/1999/xlink" width="500" zoomAndPan="magnify" viewBox="0 0 375 374.999991" height="500" preserveAspectRatio="xMidYMid meet" version="1.0"><defs><g/><clipPath id="446f3cd654"><path d="M 246.65625 114.355469 L 335.15625 114.355469 L 335.15625 170 L 246.65625 170 Z M 246.65625 114.355469 " clip-rule="nonzero"/></clipPath><clipPath id="a2984bc441"><path d="M 269 130 L 320 130 L 320 198.355469 L 269 198.355469 Z M 269 130 " clip-rule="nonzero"/></clipPath></defs><g clip-path="url(#446f3cd654)"><path fill="#bfe063" d="M 297.726562 167.027344 C 297.726562 167.027344 280.878906 167.570312 265.109375 154.019531 C 249.339844 140.46875 246.914062 114.804688 246.734375 114.984375 C 246.554688 115.167969 270.59375 110.339844 288.191406 126.347656 C 305.789062 142.355469 297.726562 167.027344 297.726562 167.027344 Z M 330.429688 149.972656 C 335.464844 139.929688 335.046875 127.097656 335.046875 127.097656 C 335.046875 127.097656 318.828125 126.976562 309.835938 138.101562 C 298.203125 152.429688 303 169.457031 303 169.457031 C 303 169.457031 323.144531 164.480469 330.429688 149.972656 Z M 330.429688 149.972656 " fill-opacity="1" fill-rule="nonzero"/></g><g clip-path="url(#a2984bc441)"><path fill="#6f913d" d="M 319.160156 141.757812 C 318.589844 141.15625 317.628906 141.15625 317.03125 141.726562 C 307.527344 151.082031 302.851562 162.203125 300.574219 173.535156 C 298.054688 160.703125 291.011719 141.21875 271.253906 130.964844 C 270.503906 130.574219 269.605469 130.875 269.246094 131.59375 C 268.855469 132.3125 269.15625 133.242188 269.875 133.601562 C 297.453125 147.933594 298.894531 181.539062 298.953125 185.585938 C 298.652344 189.394531 298.5625 193.140625 298.535156 196.796875 C 298.535156 197.636719 299.195312 198.296875 300.03125 198.296875 C 300.84375 198.296875 301.53125 197.636719 301.53125 196.796875 C 301.5625 193.378906 301.652344 189.902344 301.890625 186.363281 C 301.921875 186.246094 301.953125 186.125 301.953125 186.003906 L 301.953125 185.675781 C 303.089844 171.015625 306.957031 155.785156 319.128906 143.824219 C 319.726562 143.285156 319.726562 142.355469 319.160156 141.757812 Z M 319.160156 141.757812 " fill-opacity="1" fill-rule="nonzero"/></g><g fill="#006924" fill-opacity="1"><g transform="translate(155.809842, 210.962037)"><g><path d="M 1.171875 -6.875 C 1.171875 -7.84375 1.578125 -8.707031 2.390625 -9.46875 C 3.203125 -10.226562 3.832031 -10.753906 4.28125 -11.046875 C 4.726562 -11.335938 5.03125 -11.5625 5.1875 -11.71875 C 5.445312 -6.945312 8.671875 -4.5625 14.859375 -4.5625 C 19.734375 -4.5625 25.421875 -6.082031 31.921875 -9.125 C 36.535156 -11.21875 39.628906 -13.363281 41.203125 -15.5625 C 41.722656 -16.25 41.984375 -16.8125 41.984375 -17.25 C 41.984375 -17.695312 41.90625 -18.054688 41.75 -18.328125 L 9.125 -25.640625 C 8.175781 -25.847656 7.257812 -26.289062 6.375 -26.96875 C 4.75 -28.125 3.9375 -29.171875 3.9375 -30.109375 C 3.9375 -33.734375 6.503906 -37.007812 11.640625 -39.9375 C 17.296875 -43.132812 24.867188 -45.546875 34.359375 -47.171875 C 36.503906 -47.546875 38.101562 -47.757812 39.15625 -47.8125 C 39.46875 -47.707031 39.953125 -47.613281 40.609375 -47.53125 C 41.265625 -47.445312 41.929688 -47.328125 42.609375 -47.171875 C 44.234375 -46.804688 44.914062 -46.125 44.65625 -45.125 C 44.65625 -43.34375 41.25 -41.929688 34.4375 -40.890625 C 25.632812 -39.578125 20.144531 -38.472656 17.96875 -37.578125 C 15.789062 -36.691406 14.21875 -35.773438 13.25 -34.828125 C 12.28125 -33.890625 11.769531 -32.765625 11.71875 -31.453125 C 11.71875 -31.191406 12.316406 -30.898438 13.515625 -30.578125 C 14.722656 -30.265625 16.164062 -29.882812 17.84375 -29.4375 C 19.519531 -29 21.695312 -28.410156 24.375 -27.671875 C 30.875 -25.890625 38.84375 -23.640625 48.28125 -20.921875 C 48.800781 -19.765625 49.0625 -18.6875 49.0625 -17.6875 C 49.0625 -14.914062 47.4375 -12.242188 44.1875 -9.671875 C 40.519531 -6.785156 35.4375 -4.347656 28.9375 -2.359375 C 23.539062 -0.734375 19.242188 0.078125 16.046875 0.078125 C 13.367188 0.078125 10.820312 -0.390625 8.40625 -1.328125 C 6 -2.273438 4.191406 -3.191406 2.984375 -4.078125 C 1.773438 -4.972656 1.171875 -5.90625 1.171875 -6.875 Z M 1.171875 -6.875 "/></g></g></g><g fill="#006924" fill-opacity="1"><g transform="translate(207.540058, 210.962037)"><g><path d="M 39.078125 -1.09375 C 38.609375 -0.207031 37.390625 0.234375 35.421875 0.234375 C 33.453125 0.234375 32.46875 -0.472656 32.46875 -1.890625 C 32.46875 -8.078125 32.335938 -12.320312 32.078125 -14.625 C 31.609375 -19.707031 30.613281 -22.429688 29.09375 -22.796875 C 25.320312 -23.535156 22.242188 -23.90625 19.859375 -23.90625 C 17.472656 -23.90625 15.503906 -23.179688 13.953125 -21.734375 C 12.410156 -20.296875 11.234375 -17.910156 10.421875 -14.578125 C 9.609375 -11.253906 9.019531 -6.578125 8.65625 -0.546875 L 2.59375 -0.546875 C 2.695312 -3.535156 2.75 -6.3125 2.75 -8.875 C 2.75 -11.445312 2.695312 -14.503906 2.59375 -18.046875 C 2.488281 -21.585938 2.359375 -25.453125 2.203125 -29.640625 C 1.941406 -34.460938 1.8125 -38.535156 1.8125 -41.859375 C 1.8125 -45.191406 2.019531 -48.25 2.4375 -51.03125 C 2.957031 -52.03125 3.71875 -52.53125 4.71875 -52.53125 C 5.925781 -52.53125 6.867188 -52.09375 7.546875 -51.21875 C 8.234375 -50.351562 8.601562 -49.582031 8.65625 -48.90625 L 8.25 -35.9375 C 8.25 -31.0625 8.488281 -27.414062 8.96875 -25 C 13.6875 -28.144531 18.5625 -29.71875 23.59375 -29.71875 C 25.21875 -29.71875 26.945312 -29.585938 28.78125 -29.328125 C 32.707031 -27.285156 35.273438 -25.109375 36.484375 -22.796875 C 37.054688 -21.597656 37.421875 -20.316406 37.578125 -18.953125 C 37.742188 -17.585938 37.851562 -16.039062 37.90625 -14.3125 C 38.21875 -8.332031 38.609375 -3.925781 39.078125 -1.09375 Z M 39.078125 -1.09375 "/></g></g></g><g fill="#006924" fill-opacity="1"><g transform="translate(247.399053, 210.962037)"><g><path d="M 4.09375 -14.9375 C 4.09375 -21.125 6.765625 -26.101562 12.109375 -29.875 C 16.359375 -32.863281 21.46875 -34.671875 27.4375 -35.296875 C 27.75 -35.296875 28.484375 -35.296875 29.640625 -35.296875 C 30.796875 -35.296875 32.34375 -34.957031 34.28125 -34.28125 C 38.582031 -32.8125 41.519531 -30.21875 43.09375 -26.5 C 43.71875 -25.03125 44.03125 -23.785156 44.03125 -22.765625 C 44.03125 -21.742188 44.003906 -21.019531 43.953125 -20.59375 C 43.953125 -14.039062 41.460938 -8.878906 36.484375 -5.109375 C 31.867188 -1.648438 26.101562 0.078125 19.1875 0.078125 C 14.207031 0.078125 10.445312 -1.070312 7.90625 -3.375 C 5.363281 -5.6875 4.09375 -9.539062 4.09375 -14.9375 Z M 9.515625 -13.046875 C 9.515625 -9.796875 10.378906 -7.597656 12.109375 -6.453125 C 13.421875 -5.609375 15.625 -5.1875 18.71875 -5.1875 C 21.8125 -5.1875 24.535156 -5.421875 26.890625 -5.890625 C 29.242188 -6.367188 31.34375 -7.179688 33.1875 -8.328125 C 37.113281 -10.847656 39.078125 -14.753906 39.078125 -20.046875 C 39.078125 -23.191406 38.238281 -25.757812 36.5625 -27.75 C 34.726562 -29.90625 32.316406 -30.984375 29.328125 -30.984375 C 27.285156 -30.609375 25.226562 -30.210938 23.15625 -29.796875 C 21.082031 -29.378906 19.128906 -28.566406 17.296875 -27.359375 C 13.316406 -24.796875 10.722656 -20.023438 9.515625 -13.046875 Z M 9.515625 -13.046875 "/></g></g></g><g fill="#006924" fill-opacity="1"><g transform="translate(292.682646, 210.962037)"><g><path d="M 9.671875 -31.53125 C 16.796875 -33.988281 22.957031 -35.21875 28.15625 -35.21875 C 34.757812 -35.21875 39.160156 -33.488281 41.359375 -30.03125 C 42.359375 -28.40625 42.859375 -26.648438 42.859375 -24.765625 C 42.859375 -22.148438 42.03125 -19.453125 40.375 -16.671875 C 38.726562 -13.890625 36.539062 -11.375 33.8125 -9.125 C 27.46875 -3.9375 19.757812 -0.710938 10.6875 0.546875 C 10.6875 1.128906 10.695312 2.0625 10.71875 3.34375 C 10.75 4.625 10.773438 6.050781 10.796875 7.625 C 10.828125 9.195312 10.851562 10.875 10.875 12.65625 C 10.90625 14.4375 10.953125 16.140625 11.015625 17.765625 C 11.171875 21.804688 11.285156 24.113281 11.359375 24.6875 C 11.441406 25.257812 11.484375 25.734375 11.484375 26.109375 C 11.484375 27.421875 11.0625 28.398438 10.21875 29.046875 C 9.382812 29.703125 8.285156 30.03125 6.921875 30.03125 C 6.660156 30.03125 6.398438 30.03125 6.140625 30.03125 L 4.875 -33.1875 C 5.34375 -33.863281 5.96875 -34.175781 6.75 -34.125 C 7.539062 -34.070312 8.171875 -33.863281 8.640625 -33.5 C 9.117188 -33.132812 9.460938 -32.476562 9.671875 -31.53125 Z M 32.625 -28.78125 C 30.894531 -29.664062 29.046875 -30.109375 27.078125 -30.109375 C 25.117188 -30.109375 23.171875 -29.925781 21.234375 -29.5625 C 16.828125 -28.726562 13.578125 -26.867188 11.484375 -23.984375 C 10.535156 -22.617188 10.0625 -20.941406 10.0625 -18.953125 C 10.0625 -18.742188 10.0625 -18.535156 10.0625 -18.328125 L 10.0625 -4.71875 C 20.863281 -7.125 28.519531 -10.476562 33.03125 -14.78125 C 35.644531 -17.25 36.953125 -19.789062 36.953125 -22.40625 C 36.953125 -25.1875 35.507812 -27.3125 32.625 -28.78125 Z M 32.625 -28.78125 "/></g></g></g><g fill="#6f913d" fill-opacity="1"><g transform="translate(26.066877, 190.575727)"><g><path d="M 24.9375 -44.859375 C 29.644531 -44.859375 32.773438 -44.550781 34.328125 -43.9375 L 34.328125 -40.484375 C 33.054688 -40.296875 31.3125 -40.1875 29.09375 -40.15625 C 26.882812 -40.132812 24.535156 -40.101562 22.046875 -40.0625 C 15.078125 -39.914062 10.316406 -39.5625 7.765625 -39 C 6.960938 -35.226562 6.585938 -32.660156 6.640625 -31.296875 C 6.691406 -29.929688 6.738281 -28.875 6.78125 -28.125 C 6.96875 -26.28125 7.0625 -24.113281 7.0625 -21.625 C 10.269531 -21.625 13.929688 -21.90625 18.046875 -22.46875 C 22.171875 -23.03125 25.363281 -23.441406 27.625 -23.703125 C 29.882812 -23.960938 32.21875 -24.09375 34.625 -24.09375 L 34.625 -20.203125 L 7.5625 -16.8125 L 7.984375 -5.234375 C 12.648438 -5.234375 17.421875 -5.453125 22.296875 -5.890625 C 27.171875 -6.335938 30.863281 -6.664062 33.375 -6.875 C 35.894531 -7.09375 38.570312 -7.203125 41.40625 -7.203125 C 41.40625 -6.265625 41.117188 -5.367188 40.546875 -4.515625 C 39.421875 -3.015625 38.410156 -2.566406 37.515625 -3.171875 C 29.222656 -2.285156 21.816406 -1.582031 15.296875 -1.0625 C 8.773438 -0.539062 4.382812 -0.1875 2.125 0 L 2.40625 -45.078125 C 3.625 -44.703125 5.882812 -44.515625 9.1875 -44.515625 Z M 24.9375 -44.859375 "/></g></g></g><g fill="#6f913d" fill-opacity="1"><g transform="translate(68.877368, 190.575727)"><g><path d="M 30.484375 -7.453125 C 32.390625 -8.234375 34.257812 -8.953125 36.09375 -9.609375 C 37.9375 -10.265625 39.691406 -10.59375 41.359375 -10.59375 C 43.035156 -10.59375 43.875 -10.078125 43.875 -9.046875 C 43.875 -8.804688 43.8125 -8.4375 43.6875 -7.9375 C 43.570312 -7.445312 42.9375 -6.859375 41.78125 -6.171875 C 40.632812 -5.492188 39.222656 -4.847656 37.546875 -4.234375 C 35.878906 -3.628906 34.054688 -3.066406 32.078125 -2.546875 C 30.097656 -2.023438 28.164062 -1.578125 26.28125 -1.203125 C 22.375 -0.398438 19.59375 0 17.9375 0 C 16.289062 0 14.515625 -0.1875 12.609375 -0.5625 C 10.703125 -0.9375 8.925781 -1.550781 7.28125 -2.40625 C 3.457031 -4.382812 1.546875 -7.300781 1.546875 -11.15625 C 1.546875 -11.445312 1.546875 -12.015625 1.546875 -12.859375 C 1.546875 -13.703125 1.898438 -14.910156 2.609375 -16.484375 C 3.316406 -18.066406 4.375 -19.644531 5.78125 -21.21875 C 7.195312 -22.800781 8.847656 -24.253906 10.734375 -25.578125 C 14.691406 -28.398438 18.835938 -30.234375 23.171875 -31.078125 C 24.679688 -31.410156 25.941406 -31.578125 26.953125 -31.578125 C 27.960938 -31.578125 28.796875 -31.566406 29.453125 -31.546875 C 30.117188 -31.523438 30.800781 -31.476562 31.5 -31.40625 C 32.207031 -31.332031 32.820312 -31.15625 33.34375 -30.875 C 34.570312 -30.257812 35.1875 -29.054688 35.1875 -27.265625 C 35.1875 -26.140625 34.382812 -25.035156 32.78125 -23.953125 C 32.351562 -23.671875 31.976562 -23.410156 31.65625 -23.171875 C 31.414062 -24.253906 31.109375 -25.171875 30.734375 -25.921875 C 30.359375 -26.679688 29.535156 -27.0625 28.265625 -27.0625 C 22.703125 -25.882812 17.921875 -24.117188 13.921875 -21.765625 C 9.398438 -19.078125 7.140625 -16.25 7.140625 -13.28125 C 7.140625 -12.945312 7.160156 -12.59375 7.203125 -12.21875 C 7.203125 -9.207031 8.359375 -7.066406 10.671875 -5.796875 C 12.410156 -4.847656 14.65625 -4.375 17.40625 -4.375 C 20.164062 -4.375 22.554688 -4.691406 24.578125 -5.328125 C 26.609375 -5.960938 28.578125 -6.671875 30.484375 -7.453125 Z M 30.484375 -7.453125 "/></g></g></g><g fill="#6f913d" fill-opacity="1"><g transform="translate(114.654922, 190.575727)"><g><path d="M 3.671875 -13.421875 C 3.671875 -18.984375 6.070312 -23.457031 10.875 -26.84375 C 14.695312 -29.53125 19.289062 -31.15625 24.65625 -31.71875 C 24.9375 -31.71875 25.59375 -31.71875 26.625 -31.71875 C 27.664062 -31.71875 29.054688 -31.410156 30.796875 -30.796875 C 34.660156 -29.484375 37.300781 -27.15625 38.71875 -23.8125 C 39.28125 -22.488281 39.5625 -21.367188 39.5625 -20.453125 C 39.5625 -19.535156 39.539062 -18.890625 39.5 -18.515625 C 39.5 -12.617188 37.257812 -7.976562 32.78125 -4.59375 C 28.632812 -1.476562 23.453125 0.078125 17.234375 0.078125 C 12.765625 0.078125 9.382812 -0.957031 7.09375 -3.03125 C 4.8125 -5.101562 3.671875 -8.566406 3.671875 -13.421875 Z M 8.546875 -11.734375 C 8.546875 -8.804688 9.320312 -6.828125 10.875 -5.796875 C 12.050781 -5.035156 14.03125 -4.65625 16.8125 -4.65625 C 19.59375 -4.65625 22.039062 -4.867188 24.15625 -5.296875 C 26.28125 -5.722656 28.164062 -6.453125 29.8125 -7.484375 C 33.34375 -9.742188 35.109375 -13.253906 35.109375 -18.015625 C 35.109375 -20.835938 34.351562 -23.144531 32.84375 -24.9375 C 31.195312 -26.863281 29.035156 -27.828125 26.359375 -27.828125 C 24.515625 -27.503906 22.660156 -27.148438 20.796875 -26.765625 C 18.941406 -26.390625 17.191406 -25.660156 15.546875 -24.578125 C 11.960938 -22.273438 9.628906 -17.992188 8.546875 -11.734375 Z M 8.546875 -11.734375 "/></g></g></g></svg>