<svg xmlns="http://www.w3.org/2000/svg" xmlns:xlink="http://www.w3.org/1999/xlink" width="500" zoomAndPan="magnify" viewBox="0 0 375 374.999991" height="500" preserveAspectRatio="xMidYMid meet" version="1.0"><defs><g/><clipPath id="55d95ae76c"><path d="M 244 78.445312 L 310.175781 78.445312 L 310.175781 148.945312 L 244 148.945312 Z M 244 78.445312 " clip-rule="nonzero"/></clipPath><clipPath id="d4afa98262"><path d="M 263 119 L 363 119 L 363 191 L 263 191 Z M 263 119 " clip-rule="nonzero"/></clipPath><clipPath id="39613eb67f"><path d="M 226.789062 76.5 L 368.242188 126.410156 L 338.046875 211.988281 L 196.59375 162.078125 Z M 226.789062 76.5 " clip-rule="nonzero"/></clipPath><clipPath id="0790ce85d7"><path d="M 226.789062 76.5 L 368.242188 126.410156 L 338.046875 211.988281 L 196.59375 162.078125 Z M 226.789062 76.5 " clip-rule="nonzero"/></clipPath><clipPath id="943a7f945a"><path d="M 226.789062 76.5 L 368.242188 126.410156 L 338.046875 211.988281 L 196.59375 162.078125 Z M 226.789062 76.5 " clip-rule="nonzero"/></clipPath><clipPath id="27dd16e614"><path d="M 214 101 L 265 101 L 265 178 L 214 178 Z M 214 101 " clip-rule="nonzero"/></clipPath><clipPath id="26e636fc5d"><path d="M 226.789062 76.5 L 368.242188 126.410156 L 338.046875 211.988281 L 196.59375 162.078125 Z M 226.789062 76.5 " clip-rule="nonzero"/></clipPath><clipPath id="5446abdd5d"><path d="M 226.789062 76.5 L 368.242188 126.410156 L 338.046875 211.988281 L 196.59375 162.078125 Z M 226.789062 76.5 " clip-rule="nonzero"/></clipPath><clipPath id="2ab172dd53"><path d="M 226.789062 76.5 L 368.242188 126.410156 L 338.046875 211.988281 L 196.59375 162.078125 Z M 226.789062 76.5 " clip-rule="nonzero"/></clipPath></defs><path fill="#231f20" d="M 275.707031 98.875 C 275.757812 100.277344 275.523438 100.296875 275 100.347656 C 274.648438 100.378906 274.207031 100.417969 273.816406 100.75 C 272.976562 101.46875 273.769531 104.671875 274.148438 106.015625 C 274.675781 107.871094 275.515625 110.117188 276.550781 110.28125 C 276.769531 110.316406 276.914062 110.863281 277.039062 111.347656 C 277.296875 112.332031 277.726562 113.980469 279.734375 113.582031 C 280.136719 113.5 280.535156 113.414062 280.914062 113.332031 C 282.703125 112.945312 284.25 112.613281 284.675781 113.339844 C 285.472656 114.707031 286.386719 116.003906 288.769531 116.867188 C 289.390625 117.089844 289.992188 117.371094 290.570312 117.640625 C 291.519531 118.085938 292.273438 118.433594 292.875 118.433594 C 293.082031 118.433594 293.269531 118.394531 293.441406 118.300781 C 293.65625 118.1875 293.929688 117.933594 294.003906 117.398438 C 294.136719 116.476562 293.644531 115.738281 293.171875 115.027344 C 292.75 114.394531 292.355469 113.800781 292.355469 113.082031 C 292.355469 111.871094 290.652344 111.375 288.5 110.753906 C 286.722656 110.234375 284.507812 109.59375 284.226562 108.613281 C 284.179688 108.449219 284.128906 108.285156 284.082031 108.113281 C 283.605469 106.503906 282.957031 104.296875 283.523438 103.328125 C 283.667969 103.082031 283.886719 102.933594 284.214844 102.859375 C 285.308594 102.609375 286.222656 101.679688 286.777344 100.234375 C 287.257812 98.992188 287.449219 97.308594 286.882812 96.503906 C 286.792969 96.375 286.703125 96.253906 286.617188 96.136719 C 286.027344 95.332031 285.632812 94.804688 286.027344 93.316406 C 286.394531 91.921875 285.894531 91.082031 285.304688 90.761719 C 284.753906 90.464844 284.085938 90.558594 283.519531 90.992188 C 282.613281 90.402344 280.261719 89.027344 278.546875 89.410156 C 277.914062 89.546875 277.433594 89.902344 277.121094 90.460938 C 275.691406 92.972656 275.605469 96.125 275.707031 98.875 Z M 276.730469 98.835938 C 276.636719 96.226562 276.710938 93.253906 278.011719 90.960938 C 278.183594 90.65625 278.421875 90.480469 278.769531 90.40625 C 280.121094 90.105469 282.476562 91.492188 283.269531 92.054688 L 283.640625 92.316406 L 283.945312 91.980469 C 284.242188 91.660156 284.582031 91.53125 284.816406 91.65625 C 285.074219 91.796875 285.242188 92.28125 285.035156 93.054688 C 284.519531 95.015625 285.136719 95.851562 285.792969 96.738281 C 285.875 96.851562 285.960938 96.964844 286.042969 97.085938 C 286.269531 97.40625 286.320312 98.582031 285.820312 99.867188 C 285.398438 100.964844 284.726562 101.695312 283.988281 101.863281 C 283.382812 102 282.929688 102.320312 282.640625 102.8125 C 281.847656 104.160156 282.542969 106.511719 283.097656 108.402344 C 283.148438 108.570312 283.195312 108.734375 283.242188 108.894531 C 283.683594 110.414062 285.988281 111.085938 288.21875 111.730469 C 289.382812 112.070312 291.332031 112.636719 291.332031 113.082031 C 291.332031 114.109375 291.859375 114.894531 292.320312 115.589844 C 292.722656 116.195312 293.070312 116.714844 292.992188 117.253906 C 292.976562 117.363281 292.953125 117.402344 292.957031 117.402344 C 292.714844 117.511719 291.6875 117.03125 291.007812 116.714844 C 290.4375 116.449219 289.789062 116.144531 289.125 115.90625 C 287.0625 115.160156 286.292969 114.070312 285.566406 112.824219 C 285.15625 112.125 284.464844 111.890625 283.59375 111.890625 C 282.761719 111.890625 281.765625 112.105469 280.703125 112.335938 C 280.328125 112.417969 279.9375 112.5 279.539062 112.582031 C 278.574219 112.773438 278.359375 112.324219 278.039062 111.09375 C 277.832031 110.304688 277.597656 109.414062 276.738281 109.277344 C 276.617188 109.226562 276.179688 108.757812 275.609375 107.195312 C 274.714844 104.75 274.3125 102.007812 274.519531 101.503906 C 274.652344 101.410156 274.832031 101.386719 275.097656 101.363281 C 276.1875 101.265625 276.804688 100.820312 276.730469 98.835938 Z M 276.730469 98.835938 " fill-opacity="1" fill-rule="nonzero"/><path fill="#231f20" d="M 281.574219 123.445312 C 281.851562 123.445312 282.15625 123.40625 282.492188 123.328125 C 285.28125 122.679688 284.746094 119.933594 284.460938 118.457031 C 284.386719 118.085938 284.296875 117.621094 284.324219 117.480469 C 284.363281 117.296875 284.351562 117.015625 284.078125 116.71875 C 283.339844 115.902344 280.738281 115.1875 279.105469 115.351562 C 278.28125 115.433594 277.734375 115.726562 277.484375 116.230469 C 277.230469 116.742188 277.335938 117.386719 277.800781 118.148438 C 278.21875 118.828125 278.472656 119.609375 278.71875 120.359375 C 279.199219 121.820312 279.730469 123.445312 281.574219 123.445312 Z M 278.675781 117.617188 C 278.421875 117.203125 278.320312 116.851562 278.402344 116.683594 C 278.480469 116.527344 278.785156 116.410156 279.210938 116.367188 C 279.34375 116.351562 279.484375 116.347656 279.628906 116.347656 C 281.101562 116.347656 282.964844 117 283.304688 117.382812 C 283.269531 117.710938 283.351562 118.132812 283.453125 118.652344 C 283.8125 120.496094 283.953125 121.941406 282.261719 122.332031 C 280.644531 122.710938 280.304688 121.902344 279.695312 120.042969 C 279.441406 119.273438 279.15625 118.402344 278.675781 117.617188 Z M 278.675781 117.617188 " fill-opacity="1" fill-rule="nonzero"/><path fill="#231f20" d="M 285.132812 132.109375 C 285.339844 132.203125 285.5625 132.332031 285.800781 132.46875 C 286.414062 132.820312 287.15625 133.253906 287.988281 133.253906 C 288.53125 133.253906 289.113281 133.066406 289.71875 132.546875 C 291.613281 130.910156 292.960938 128.710938 293.515625 126.355469 C 294.007812 124.273438 292.867188 122.957031 292.035156 121.996094 C 291.726562 121.644531 291.4375 121.308594 291.289062 121.011719 C 290.757812 119.949219 289.921875 119.179688 289.054688 118.949219 C 288.402344 118.777344 287.738281 118.90625 287.128906 119.316406 L 287.046875 119.371094 L 286.992188 119.457031 C 286.914062 119.574219 285.082031 122.34375 286.023438 124.335938 C 286.707031 125.789062 286.289062 126.472656 285.015625 127.542969 C 284.199219 128.230469 283.785156 129.300781 283.929688 130.339844 C 284.039062 131.15625 284.492188 131.820312 285.132812 132.109375 Z M 285.675781 128.320312 C 286.890625 127.296875 287.992188 126.109375 286.945312 123.898438 C 286.394531 122.730469 287.316406 120.847656 287.785156 120.109375 C 288.121094 119.90625 288.453125 119.847656 288.792969 119.9375 C 289.484375 120.121094 290.0625 120.847656 290.371094 121.464844 C 290.574219 121.882812 290.90625 122.261719 291.257812 122.667969 C 292.058594 123.589844 292.890625 124.550781 292.519531 126.121094 C 291.835938 129.019531 290.046875 130.90625 289.046875 131.773438 C 288.148438 132.550781 287.414062 132.222656 286.316406 131.585938 C 286.066406 131.441406 285.808594 131.292969 285.558594 131.179688 C 285.238281 131.035156 285.007812 130.667969 284.945312 130.199219 C 284.867188 129.65625 285.019531 128.875 285.675781 128.320312 Z M 285.675781 128.320312 " fill-opacity="1" fill-rule="nonzero"/><path fill="#231f20" d="M 294.671875 132.566406 C 293.757812 133.222656 292.71875 133.96875 293.035156 135.082031 C 293.054688 135.152344 293.0625 135.195312 293.0625 135.222656 C 292.917969 135.285156 292.515625 135.320312 292.21875 135.34375 C 291.351562 135.421875 290.046875 135.535156 288.6875 136.308594 C 286.53125 137.535156 284.152344 139.664062 284.066406 140.960938 C 284.042969 141.320312 284.179688 141.628906 284.449219 141.832031 C 284.761719 142.070312 285.09375 142.152344 285.425781 142.152344 C 285.820312 142.152344 286.222656 142.039062 286.59375 141.929688 C 287.058594 141.796875 287.496094 141.667969 287.863281 141.765625 C 289.148438 142.097656 290.652344 141.449219 291.664062 141.011719 L 291.460938 140.542969 L 291.238281 140.082031 C 290.375 140.457031 289.066406 141.023438 288.125 140.777344 C 287.484375 140.613281 286.859375 140.789062 286.308594 140.949219 C 285.722656 141.117188 285.347656 141.210938 285.085938 141.035156 C 285.046875 140.53125 286.703125 138.613281 289.195312 137.195312 C 290.359375 136.53125 291.484375 136.433594 292.304688 136.363281 C 293.039062 136.296875 293.617188 136.246094 293.921875 135.804688 C 294.105469 135.542969 294.136719 135.214844 294.019531 134.804688 C 293.898438 134.378906 294.597656 133.878906 295.273438 133.390625 C 296.117188 132.785156 297.074219 132.097656 296.9375 131.101562 C 296.804688 130.144531 296.628906 129.421875 296.523438 129.027344 C 296.875 128.761719 297.1875 128.648438 297.460938 128.683594 C 298.09375 128.773438 298.671875 129.683594 299.230469 130.5625 C 299.796875 131.449219 300.324219 132.285156 301.078125 132.632812 L 301.507812 131.703125 C 301.03125 131.484375 300.554688 130.738281 300.097656 130.015625 C 299.414062 128.9375 298.707031 127.824219 297.597656 127.671875 C 296.945312 127.582031 296.289062 127.84375 295.59375 128.46875 L 295.34375 128.691406 L 295.449219 129.007812 C 295.453125 129.015625 295.730469 129.875 295.921875 131.238281 C 295.976562 131.632812 295.285156 132.128906 294.671875 132.566406 Z M 294.671875 132.566406 " fill-opacity="1" fill-rule="nonzero"/><path fill="#231f20" d="M 275.898438 122.289062 C 274.808594 122.324219 273.59375 123.023438 273.328125 124.507812 C 273.238281 125.007812 273.140625 125.539062 272.980469 126.066406 C 272.523438 127.578125 270.0625 130.097656 268.265625 131.9375 C 266.449219 133.792969 265.820312 134.464844 265.820312 134.988281 C 265.820312 135.507812 266.203125 135.964844 266.796875 136.144531 C 266.980469 136.203125 267.1875 136.234375 267.40625 136.234375 C 268.363281 136.234375 269.621094 135.636719 270.789062 133.929688 C 271.773438 132.496094 273.101562 131.816406 274.269531 131.21875 C 275.378906 130.648438 276.335938 130.160156 276.746094 129.179688 C 277.027344 128.507812 277.550781 127.964844 278.015625 127.484375 C 278.675781 126.800781 279.425781 126.023438 278.878906 125.09375 C 278.8125 124.984375 278.714844 124.765625 278.613281 124.34375 C 278.253906 122.875 277 122.253906 275.898438 122.289062 Z M 277.277344 126.773438 C 276.78125 127.289062 276.160156 127.933594 275.804688 128.78125 C 275.535156 129.421875 274.773438 129.8125 273.804688 130.304688 C 272.589844 130.929688 271.078125 131.703125 269.945312 133.351562 C 268.742188 135.105469 267.589844 135.320312 267.097656 135.167969 C 266.953125 135.121094 266.882812 135.054688 266.855469 135.015625 C 267.042969 134.648438 268.125 133.542969 269 132.648438 C 270.972656 130.625 273.433594 128.109375 273.960938 126.359375 C 274.136719 125.78125 274.246094 125.214844 274.335938 124.6875 C 274.511719 123.703125 275.304688 123.328125 275.933594 123.308594 C 276.554688 123.285156 277.378906 123.609375 277.617188 124.582031 C 277.726562 125.023438 277.847656 125.359375 277.996094 125.605469 C 278.128906 125.832031 277.933594 126.097656 277.277344 126.773438 Z M 277.277344 126.773438 " fill-opacity="1" fill-rule="nonzero"/><path fill="#231f20" d="M 302.988281 119.324219 C 302.535156 118.625 301.640625 117.730469 299.9375 117.46875 C 299.125 117.34375 298.394531 117.277344 297.761719 117.273438 C 297.757812 117.273438 297.753906 117.273438 297.75 117.273438 C 297.167969 117.273438 296.625 117.558594 296.292969 118.042969 C 295.964844 118.523438 295.898438 119.128906 296.113281 119.664062 C 296.527344 120.691406 297.253906 121.476562 298.21875 121.933594 C 298.976562 122.289062 299.148438 123.0625 299.355469 123.960938 C 299.621094 125.125 299.949219 126.578125 301.917969 126.714844 C 302.03125 126.722656 302.136719 126.726562 302.238281 126.726562 C 302.910156 126.726562 303.378906 126.554688 303.667969 126.207031 C 304.171875 125.597656 303.929688 124.726562 303.699219 123.882812 C 303.550781 123.332031 303.378906 122.710938 303.480469 122.339844 C 303.753906 121.378906 303.566406 120.222656 302.988281 119.324219 Z M 302.878906 125.554688 C 302.839844 125.601562 302.667969 125.742188 301.992188 125.695312 C 300.839844 125.613281 300.636719 124.964844 300.355469 123.730469 C 300.125 122.722656 299.867188 121.574219 298.65625 121.007812 C 297.921875 120.660156 297.386719 120.078125 297.066406 119.28125 C 296.976562 119.058594 297.003906 118.816406 297.140625 118.617188 C 297.28125 118.410156 297.503906 118.292969 297.753906 118.292969 C 297.753906 118.292969 297.757812 118.292969 297.757812 118.292969 C 298.339844 118.296875 299.019531 118.359375 299.78125 118.476562 C 301.109375 118.683594 301.789062 119.351562 302.125 119.875 C 302.636719 120.664062 302.652344 121.523438 302.5 122.058594 C 302.316406 122.703125 302.519531 123.4375 302.714844 124.148438 C 302.851562 124.660156 303.042969 125.355469 302.878906 125.554688 Z M 302.878906 125.554688 " fill-opacity="1" fill-rule="nonzero"/><g clip-path="url(#55d95ae76c)"><path fill="#231f20" d="M 301.664062 95.414062 C 296.246094 89.546875 288.886719 85.929688 280.945312 85.230469 L 280.855469 86.246094 C 296.953125 87.664062 309.09375 100.894531 309.09375 117.023438 C 309.09375 134.0625 295.1875 147.925781 278.089844 147.925781 C 260.996094 147.925781 247.085938 134.0625 247.085938 117.023438 C 247.085938 116.660156 247.09375 116.296875 247.105469 115.9375 C 247.265625 115.945312 247.457031 115.953125 247.671875 115.953125 C 248.84375 115.953125 250.796875 115.757812 253.253906 114.789062 C 256.894531 113.347656 262.40625 109.835938 267.972656 101.277344 C 278.617188 84.910156 276.960938 79.058594 276.886719 78.816406 L 276.769531 78.445312 L 276.378906 78.457031 C 276.191406 78.464844 271.742188 78.628906 266.15625 80.21875 C 260.980469 81.6875 253.851562 84.710938 249.304688 90.761719 C 244.558594 97.070312 243.46875 105.390625 246.0625 115.492188 L 246.09375 115.617188 C 246.074219 116.085938 246.058594 116.554688 246.058594 117.027344 C 246.0625 134.625 260.429688 148.945312 278.089844 148.945312 C 295.753906 148.945312 310.121094 134.625 310.121094 117.023438 C 310.121094 108.996094 307.117188 101.320312 301.664062 95.414062 Z M 250.121094 91.378906 C 257.761719 81.214844 273.140625 79.699219 275.964844 79.503906 C 276.105469 81.027344 275.921875 87.171875 267.117188 100.71875 C 261.730469 109.003906 256.441406 112.410156 252.957031 113.804688 C 250.179688 114.917969 248.078125 114.964844 247.160156 114.910156 C 247.675781 107.191406 251.011719 100.066406 256.691406 94.667969 L 255.984375 93.929688 C 250.738281 98.914062 247.429688 105.328125 246.402344 112.328125 C 244.785156 103.855469 246.03125 96.816406 250.121094 91.378906 Z M 250.121094 91.378906 " fill-opacity="1" fill-rule="nonzero"/></g><path fill="#231f20" d="M 263.480469 122.296875 C 262.199219 120.902344 261.023438 121.027344 260.085938 121.125 C 259.226562 121.21875 258.609375 121.28125 257.851562 120.335938 C 255.746094 117.710938 250.691406 119.890625 250.480469 119.984375 L 250.890625 120.917969 C 252.148438 120.367188 255.707031 119.300781 257.050781 120.972656 C 258.160156 122.359375 259.285156 122.238281 260.191406 122.144531 C 261.050781 122.054688 261.792969 121.972656 262.726562 122.988281 C 263.570312 123.910156 263.144531 124.621094 262.257812 125.898438 C 261.515625 126.960938 260.59375 128.285156 261.210938 129.882812 C 261.964844 131.839844 258.34375 133.902344 256.882812 134.53125 L 257.289062 135.472656 C 257.542969 135.363281 263.429688 132.785156 262.167969 129.515625 C 261.746094 128.425781 262.402344 127.480469 263.097656 126.480469 C 263.910156 125.3125 264.917969 123.863281 263.480469 122.296875 Z M 263.480469 122.296875 " fill-opacity="1" fill-rule="nonzero"/><g clip-path="url(#d4afa98262)"><g clip-path="url(#39613eb67f)"><g clip-path="url(#0790ce85d7)"><g clip-path="url(#943a7f945a)"><path fill="#39b54a" d="M 263.859375 180.421875 C 263.261719 171.863281 263.578125 155.722656 273.722656 141.945312 C 290.359375 119.34375 327 111.855469 362.554688 127.042969 C 356.488281 159.640625 334.371094 184.378906 307.378906 189.375 C 289.199219 192.742188 273.902344 186.203125 266.851562 182.550781 C 276.476562 179.464844 287.613281 175.0625 299.441406 168.6875 C 317.695312 158.847656 331.542969 147.582031 341.394531 138.167969 C 328.933594 146.886719 314.460938 155.953125 297.9375 164.601562 C 286.015625 170.839844 274.574219 176.054688 263.859375 180.421875 Z M 263.859375 180.421875 " fill-opacity="1" fill-rule="nonzero"/></g></g></g></g><g clip-path="url(#27dd16e614)"><g clip-path="url(#26e636fc5d)"><g clip-path="url(#5446abdd5d)"><g clip-path="url(#2ab172dd53)"><path fill="#39b54a" d="M 253.875 177.808594 C 247.589844 177.523438 235.863281 175.933594 226.707031 167.363281 C 211.679688 153.300781 209.386719 125.894531 223.515625 101.195312 C 246.726562 108.375 262.835938 126.617188 264.144531 146.761719 C 265.03125 160.328125 258.949219 170.957031 255.683594 175.796875 C 254.261719 168.503906 252.019531 159.996094 248.394531 150.820312 C 242.804688 136.652344 235.792969 125.585938 229.789062 117.59375 C 235.066406 127.433594 240.417969 138.773438 245.292969 151.574219 C 248.808594 160.8125 251.617188 169.609375 253.875 177.808594 Z M 253.875 177.808594 " fill-opacity="1" fill-rule="nonzero"/></g></g></g></g><g fill="#2f554d" fill-opacity="1"><g transform="translate(36.356161, 206.354341)"><g><path d="M 22.1875 -39.90625 C 26.375 -39.90625 29.15625 -39.628906 30.53125 -39.078125 L 30.53125 -36 C 29.40625 -35.832031 27.859375 -35.738281 25.890625 -35.71875 C 23.921875 -35.695312 21.828125 -35.664062 19.609375 -35.625 C 13.410156 -35.5 9.175781 -35.1875 6.90625 -34.6875 C 6.195312 -31.332031 5.863281 -29.046875 5.90625 -27.828125 C 5.945312 -26.617188 5.988281 -25.679688 6.03125 -25.015625 C 6.195312 -23.378906 6.28125 -21.453125 6.28125 -19.234375 C 9.132812 -19.234375 12.390625 -19.484375 16.046875 -19.984375 C 19.710938 -20.484375 22.550781 -20.847656 24.5625 -21.078125 C 26.570312 -21.304688 28.648438 -21.421875 30.796875 -21.421875 L 30.796875 -17.96875 L 6.71875 -14.953125 L 7.09375 -4.65625 C 11.25 -4.65625 15.492188 -4.851562 19.828125 -5.25 C 24.160156 -5.644531 27.445312 -5.9375 29.6875 -6.125 C 31.925781 -6.3125 34.304688 -6.40625 36.828125 -6.40625 C 36.828125 -5.570312 36.570312 -4.773438 36.0625 -4.015625 C 35.0625 -2.679688 34.160156 -2.285156 33.359375 -2.828125 C 25.992188 -2.035156 19.410156 -1.40625 13.609375 -0.9375 C 7.804688 -0.476562 3.898438 -0.164062 1.890625 0 L 2.140625 -40.09375 C 3.222656 -39.757812 5.234375 -39.59375 8.171875 -39.59375 Z M 22.1875 -39.90625 "/></g></g></g><g fill="#2f554d" fill-opacity="1"><g transform="translate(74.429965, 206.354341)"><g><path d="M 27.109375 -6.625 C 28.804688 -7.320312 30.472656 -7.960938 32.109375 -8.546875 C 33.742188 -9.128906 35.300781 -9.421875 36.78125 -9.421875 C 38.269531 -9.421875 39.015625 -8.960938 39.015625 -8.046875 C 39.015625 -7.835938 38.960938 -7.507812 38.859375 -7.0625 C 38.753906 -6.625 38.1875 -6.101562 37.15625 -5.5 C 36.132812 -4.894531 34.878906 -4.316406 33.390625 -3.765625 C 31.910156 -3.222656 30.289062 -2.722656 28.53125 -2.265625 C 26.769531 -1.804688 25.050781 -1.40625 23.375 -1.0625 C 19.894531 -0.351562 17.421875 0 15.953125 0 C 14.492188 0 12.914062 -0.164062 11.21875 -0.5 C 9.519531 -0.832031 7.9375 -1.378906 6.46875 -2.140625 C 3.070312 -3.898438 1.375 -6.492188 1.375 -9.921875 C 1.375 -10.179688 1.375 -10.6875 1.375 -11.4375 C 1.375 -12.1875 1.6875 -13.265625 2.3125 -14.671875 C 2.945312 -16.078125 3.890625 -17.476562 5.140625 -18.875 C 6.398438 -20.28125 7.867188 -21.570312 9.546875 -22.75 C 13.066406 -25.257812 16.753906 -26.890625 20.609375 -27.640625 C 21.953125 -27.941406 23.070312 -28.09375 23.96875 -28.09375 C 24.875 -28.09375 25.617188 -28.082031 26.203125 -28.0625 C 26.785156 -28.039062 27.390625 -28 28.015625 -27.9375 C 28.648438 -27.875 29.195312 -27.710938 29.65625 -27.453125 C 30.75 -26.910156 31.296875 -25.84375 31.296875 -24.25 C 31.296875 -23.25 30.582031 -22.265625 29.15625 -21.296875 C 28.78125 -21.046875 28.445312 -20.816406 28.15625 -20.609375 C 27.945312 -21.578125 27.671875 -22.394531 27.328125 -23.0625 C 26.992188 -23.726562 26.265625 -24.0625 25.140625 -24.0625 C 20.191406 -23.019531 15.9375 -21.453125 12.375 -19.359375 C 8.351562 -16.960938 6.34375 -14.445312 6.34375 -11.8125 C 6.34375 -11.519531 6.363281 -11.207031 6.40625 -10.875 C 6.40625 -8.1875 7.429688 -6.28125 9.484375 -5.15625 C 11.035156 -4.3125 13.035156 -3.890625 15.484375 -3.890625 C 17.941406 -3.890625 20.066406 -4.171875 21.859375 -4.734375 C 23.660156 -5.304688 25.410156 -5.9375 27.109375 -6.625 Z M 27.109375 -6.625 "/></g></g></g><g fill="#2f554d" fill-opacity="1"><g transform="translate(115.142548, 206.354341)"><g><path d="M 3.265625 -11.9375 C 3.265625 -16.882812 5.398438 -20.863281 9.671875 -23.875 C 13.066406 -26.257812 17.148438 -27.707031 21.921875 -28.21875 C 22.179688 -28.21875 22.769531 -28.21875 23.6875 -28.21875 C 24.613281 -28.21875 25.847656 -27.941406 27.390625 -27.390625 C 30.828125 -26.222656 33.175781 -24.148438 34.4375 -21.171875 C 34.9375 -20.003906 35.1875 -19.007812 35.1875 -18.1875 C 35.1875 -17.375 35.164062 -16.800781 35.125 -16.46875 C 35.125 -11.226562 33.132812 -7.097656 29.15625 -4.078125 C 25.46875 -1.316406 20.859375 0.0625 15.328125 0.0625 C 11.347656 0.0625 8.34375 -0.859375 6.3125 -2.703125 C 4.28125 -4.546875 3.265625 -7.625 3.265625 -11.9375 Z M 7.609375 -10.4375 C 7.609375 -7.832031 8.296875 -6.070312 9.671875 -5.15625 C 10.722656 -4.476562 12.484375 -4.140625 14.953125 -4.140625 C 17.421875 -4.140625 19.597656 -4.328125 21.484375 -4.703125 C 23.367188 -5.085938 25.046875 -5.738281 26.515625 -6.65625 C 29.660156 -8.664062 31.234375 -11.785156 31.234375 -16.015625 C 31.234375 -18.535156 30.5625 -20.59375 29.21875 -22.1875 C 27.75 -23.894531 25.820312 -24.75 23.4375 -24.75 C 21.800781 -24.457031 20.15625 -24.144531 18.5 -23.8125 C 16.84375 -23.476562 15.285156 -22.828125 13.828125 -21.859375 C 10.640625 -19.804688 8.566406 -16 7.609375 -10.4375 Z M 7.609375 -10.4375 "/></g></g></g><g fill="#2f554d" fill-opacity="1"><g transform="translate(151.33151, 206.354341)"><g><path d="M 0.9375 -5.484375 C 0.9375 -6.265625 1.257812 -6.957031 1.90625 -7.5625 C 2.5625 -8.175781 3.066406 -8.597656 3.421875 -8.828125 C 3.773438 -9.054688 4.015625 -9.234375 4.140625 -9.359375 C 4.359375 -5.546875 6.9375 -3.640625 11.875 -3.640625 C 15.769531 -3.640625 20.316406 -4.851562 25.515625 -7.28125 C 29.203125 -8.957031 31.671875 -10.675781 32.921875 -12.4375 C 33.335938 -12.988281 33.546875 -13.441406 33.546875 -13.796875 C 33.546875 -14.148438 33.484375 -14.429688 33.359375 -14.640625 L 7.28125 -20.484375 C 6.53125 -20.648438 5.800781 -21.003906 5.09375 -21.546875 C 3.789062 -22.472656 3.140625 -23.3125 3.140625 -24.0625 C 3.140625 -26.957031 5.191406 -29.578125 9.296875 -31.921875 C 13.828125 -34.472656 19.878906 -36.398438 27.453125 -37.703125 C 29.171875 -37.992188 30.453125 -38.160156 31.296875 -38.203125 C 31.546875 -38.117188 31.929688 -38.046875 32.453125 -37.984375 C 32.972656 -37.921875 33.507812 -37.828125 34.0625 -37.703125 C 35.351562 -37.410156 35.894531 -36.863281 35.6875 -36.0625 C 35.6875 -34.644531 32.960938 -33.515625 27.515625 -32.671875 C 20.484375 -31.628906 16.097656 -30.75 14.359375 -30.03125 C 12.617188 -29.320312 11.359375 -28.585938 10.578125 -27.828125 C 9.804688 -27.078125 9.398438 -26.179688 9.359375 -25.140625 C 9.359375 -24.921875 9.835938 -24.6875 10.796875 -24.4375 C 11.765625 -24.1875 12.921875 -23.882812 14.265625 -23.53125 C 15.609375 -23.175781 17.347656 -22.707031 19.484375 -22.125 C 24.671875 -20.695312 31.035156 -18.894531 38.578125 -16.71875 C 38.992188 -15.789062 39.203125 -14.929688 39.203125 -14.140625 C 39.203125 -11.921875 37.90625 -9.785156 35.3125 -7.734375 C 32.382812 -5.421875 28.320312 -3.472656 23.125 -1.890625 C 18.8125 -0.585938 15.375 0.0625 12.8125 0.0625 C 10.675781 0.0625 8.644531 -0.3125 6.71875 -1.0625 C 4.789062 -1.820312 3.34375 -2.554688 2.375 -3.265625 C 1.414062 -3.972656 0.9375 -4.710938 0.9375 -5.484375 Z M 0.9375 -5.484375 "/></g></g></g><g fill="#2f554d" fill-opacity="1"><g transform="translate(192.672374, 206.354341)"><g><path d="M 31.234375 -0.875 C 30.847656 -0.164062 29.867188 0.1875 28.296875 0.1875 C 26.734375 0.1875 25.953125 -0.378906 25.953125 -1.515625 C 25.953125 -6.453125 25.847656 -9.84375 25.640625 -11.6875 C 25.265625 -15.75 24.46875 -17.925781 23.25 -18.21875 C 20.226562 -18.8125 17.765625 -19.109375 15.859375 -19.109375 C 13.953125 -19.109375 12.378906 -18.53125 11.140625 -17.375 C 9.910156 -16.21875 8.972656 -14.3125 8.328125 -11.65625 C 7.679688 -9 7.207031 -5.257812 6.90625 -0.4375 L 2.078125 -0.4375 C 2.160156 -2.820312 2.203125 -5.039062 2.203125 -7.09375 C 2.203125 -9.144531 2.160156 -11.582031 2.078125 -14.40625 C 1.992188 -17.238281 1.890625 -20.332031 1.765625 -23.6875 C 1.546875 -27.539062 1.4375 -30.796875 1.4375 -33.453125 C 1.4375 -36.117188 1.609375 -38.5625 1.953125 -40.78125 C 2.367188 -41.570312 2.972656 -41.96875 3.765625 -41.96875 C 4.734375 -41.96875 5.488281 -41.625 6.03125 -40.9375 C 6.570312 -40.25 6.863281 -39.628906 6.90625 -39.078125 L 6.59375 -28.71875 C 6.59375 -24.820312 6.78125 -21.910156 7.15625 -19.984375 C 10.925781 -22.492188 14.820312 -23.75 18.84375 -23.75 C 20.144531 -23.75 21.53125 -23.644531 23 -23.4375 C 26.132812 -21.800781 28.1875 -20.0625 29.15625 -18.21875 C 29.613281 -17.257812 29.90625 -16.234375 30.03125 -15.140625 C 30.15625 -14.054688 30.238281 -12.820312 30.28125 -11.4375 C 30.53125 -6.65625 30.847656 -3.132812 31.234375 -0.875 Z M 31.234375 -0.875 "/></g></g></g><g fill="#2f554d" fill-opacity="1"><g transform="translate(224.5262, 206.354341)"><g><path d="M 3.265625 -11.9375 C 3.265625 -16.882812 5.398438 -20.863281 9.671875 -23.875 C 13.066406 -26.257812 17.148438 -27.707031 21.921875 -28.21875 C 22.179688 -28.21875 22.769531 -28.21875 23.6875 -28.21875 C 24.613281 -28.21875 25.847656 -27.941406 27.390625 -27.390625 C 30.828125 -26.222656 33.175781 -24.148438 34.4375 -21.171875 C 34.9375 -20.003906 35.1875 -19.007812 35.1875 -18.1875 C 35.1875 -17.375 35.164062 -16.800781 35.125 -16.46875 C 35.125 -11.226562 33.132812 -7.097656 29.15625 -4.078125 C 25.46875 -1.316406 20.859375 0.0625 15.328125 0.0625 C 11.347656 0.0625 8.34375 -0.859375 6.3125 -2.703125 C 4.28125 -4.546875 3.265625 -7.625 3.265625 -11.9375 Z M 7.609375 -10.4375 C 7.609375 -7.832031 8.296875 -6.070312 9.671875 -5.15625 C 10.722656 -4.476562 12.484375 -4.140625 14.953125 -4.140625 C 17.421875 -4.140625 19.597656 -4.328125 21.484375 -4.703125 C 23.367188 -5.085938 25.046875 -5.738281 26.515625 -6.65625 C 29.660156 -8.664062 31.234375 -11.785156 31.234375 -16.015625 C 31.234375 -18.535156 30.5625 -20.59375 29.21875 -22.1875 C 27.75 -23.894531 25.820312 -24.75 23.4375 -24.75 C 21.800781 -24.457031 20.15625 -24.144531 18.5 -23.8125 C 16.84375 -23.476562 15.285156 -22.828125 13.828125 -21.859375 C 10.640625 -19.804688 8.566406 -16 7.609375 -10.4375 Z M 7.609375 -10.4375 "/></g></g></g><g fill="#2f554d" fill-opacity="1"><g transform="translate(260.715162, 206.354341)"><g><path d="M 7.734375 -25.203125 C 13.429688 -27.171875 18.351562 -28.15625 22.5 -28.15625 C 27.769531 -28.15625 31.285156 -26.769531 33.046875 -24 C 33.847656 -22.707031 34.25 -21.304688 34.25 -19.796875 C 34.25 -17.703125 33.585938 -15.539062 32.265625 -13.3125 C 30.941406 -11.09375 29.191406 -9.082031 27.015625 -7.28125 C 21.953125 -3.132812 15.796875 -0.5625 8.546875 0.4375 C 8.546875 0.894531 8.554688 1.632812 8.578125 2.65625 C 8.597656 3.6875 8.617188 4.832031 8.640625 6.09375 C 8.660156 7.351562 8.679688 8.691406 8.703125 10.109375 C 8.722656 11.535156 8.753906 12.898438 8.796875 14.203125 C 8.921875 17.429688 9.015625 19.273438 9.078125 19.734375 C 9.140625 20.191406 9.171875 20.566406 9.171875 20.859375 C 9.171875 21.910156 8.832031 22.695312 8.15625 23.21875 C 7.488281 23.738281 6.613281 24 5.53125 24 C 5.320312 24 5.113281 24 4.90625 24 L 3.890625 -26.515625 C 4.273438 -27.054688 4.78125 -27.304688 5.40625 -27.265625 C 6.03125 -27.222656 6.53125 -27.054688 6.90625 -26.765625 C 7.289062 -26.472656 7.566406 -25.953125 7.734375 -25.203125 Z M 26.078125 -23 C 24.691406 -23.707031 23.210938 -24.0625 21.640625 -24.0625 C 20.078125 -24.0625 18.519531 -23.914062 16.96875 -23.625 C 13.445312 -22.957031 10.847656 -21.472656 9.171875 -19.171875 C 8.421875 -18.078125 8.046875 -16.734375 8.046875 -15.140625 C 8.046875 -14.972656 8.046875 -14.804688 8.046875 -14.640625 L 8.046875 -3.765625 C 16.671875 -5.691406 22.785156 -8.375 26.390625 -11.8125 C 28.484375 -13.78125 29.53125 -15.8125 29.53125 -17.90625 C 29.53125 -20.125 28.378906 -21.820312 26.078125 -23 Z M 26.078125 -23 "/></g></g></g></svg>